<?xml version="1.0" encoding="UTF-8"?><svg id="Layer_2" xmlns="http://www.w3.org/2000/svg" xmlns:xlink="http://www.w3.org/1999/xlink" viewBox="0 0 40 40"><defs><style>.cls-1{fill:url(#linear-gradient);}.cls-2{fill:url(#linear-gradient-3);}.cls-3{fill:url(#linear-gradient-4);}.cls-4{fill:url(#linear-gradient-2);}.cls-5{fill:url(#linear-gradient-6);}.cls-6{fill:url(#linear-gradient-7);}.cls-7{fill:url(#linear-gradient-5);}</style><linearGradient id="linear-gradient" x1="6.92" y1="16.33" x2="22.4" y2="16.33" gradientUnits="userSpaceOnUse"><stop offset="0" stop-color="#e8b218"/><stop offset="0" stop-color="#ecac1a"/><stop offset=".32" stop-color="#e7ba1e"/><stop offset=".68" stop-color="#ffe864"/><stop offset="1" stop-color="#f5c635"/></linearGradient><linearGradient id="linear-gradient-2" x1="7.98" y1="26.68" x2="35.16" y2="26.68" xlink:href="#linear-gradient"/><linearGradient id="linear-gradient-3" x1="0" y1="20" x2="40" y2="20" xlink:href="#linear-gradient"/><linearGradient id="linear-gradient-4" x1="26.22" y1="11.49" x2="38.59" y2="11.49" xlink:href="#linear-gradient"/><linearGradient id="linear-gradient-5" x1="10.12" y1="17.85" x2="12.7" y2="17.85" xlink:href="#linear-gradient"/><linearGradient id="linear-gradient-6" x1="13.29" y1="16.57" x2="16.36" y2="16.57" xlink:href="#linear-gradient"/><linearGradient id="linear-gradient-7" x1="16.81" y1="14.81" x2="19.38" y2="14.81" xlink:href="#linear-gradient"/></defs><g id="OBJECTS"><g><path class="cls-1" d="M6.92,14.52l.46,13.64,15.01-10.02-.46-13.64L6.92,14.52Zm1.56,11.58l-.39-11.03L20.84,6.57l.39,11.03-12.74,8.5Z"/><polygon class="cls-4" points="35.16 24.31 22.99 19.03 7.98 29.04 20.14 34.33 35.16 24.31"/><path class="cls-2" d="M37.54,10.38l-1.59,3.18c.81,1.99,1.25,4.16,1.25,6.44,0,9.5-7.7,17.19-17.19,17.19S2.81,29.5,2.81,20,10.5,2.81,20,2.81c4.12,0,7.9,1.45,10.86,3.86l3.23-.86C30.47,2.22,25.5,0,20,0,8.95,0,0,8.95,0,20s8.95,20,20,20,20-8.95,20-20c0-3.49-.89-6.77-2.46-9.62Z"/><polygon class="cls-3" points="26.22 9.06 30.9 11.65 32.87 17.22 38.59 5.76 26.22 9.06"/><g><path class="cls-7" d="M12.7,19.87l-2.58,.18v-1.01l2.58-3.4v1.21l-1.57,2,1.57-.18v1.2Z"/><path class="cls-5" d="M13.29,14.85l1.92-1.34c.32-.22,.57-.27,.74-.15,.17,.12,.26,.36,.26,.71,0,.3-.06,.59-.18,.89-.08,.2-.2,.39-.36,.58,.24-.08,.41-.05,.53,.08s.17,.36,.17,.68c0,.26-.04,.52-.12,.78-.08,.26-.19,.5-.33,.72-.09,.13-.22,.28-.39,.43-.23,.21-.38,.34-.46,.39l-1.77,1.23v-5Zm1.04,1.24l.45-.31c.16-.11,.27-.23,.33-.36,.06-.13,.09-.27,.09-.42,0-.15-.03-.24-.09-.28-.06-.04-.17,0-.33,.1l-.45,.32v.95Zm0,1.96l.52-.36c.18-.12,.3-.26,.37-.4,.07-.14,.11-.3,.11-.46,0-.15-.04-.24-.11-.28-.07-.04-.2,0-.38,.13l-.52,.36v1.01Z"/><path class="cls-6" d="M16.81,15.82l1.57-2-1.57,.18v-1.21l2.58-.18v1.01l-2.58,3.4v-1.2Z"/></g></g></g></svg>